<svg width="223" height="50" viewBox="0 0 223 50" fill="none" xmlns="http://www.w3.org/2000/svg">
<path d="M94.5131 1.66338V24.6943H89.7554V2.45128L84.6947 24.6943H76.1793L71.1488 2.6028V24.6943H66.3608V1.66338H75.6338L80.4521 23.9367L85.2401 1.66338H94.5131ZM102.723 23.6034C100.965 22.6337 99.6016 21.2397 98.6318 19.4518C97.6621 17.6638 97.1773 15.5729 97.1773 13.1789C97.1773 10.7849 97.6621 8.69389 98.6318 6.90596C99.6016 5.11803 100.965 3.72405 102.723 2.75432C104.48 1.7846 106.481 1.29974 108.723 1.29974C110.966 1.29974 112.966 1.7846 114.723 2.75432C116.481 3.72405 117.845 5.11803 118.814 6.90596C119.784 8.69389 120.269 10.7849 120.269 13.1789C120.269 15.5729 119.784 17.6638 118.814 19.4518C117.845 21.2397 116.481 22.6337 114.723 23.6034C112.966 24.5731 110.966 25.058 108.723 25.058C106.481 25.058 104.48 24.5731 102.723 23.6034ZM112.147 20.3003C113.147 19.6336 113.905 18.6942 114.45 17.482C114.996 16.2699 115.269 14.8456 115.269 13.2395C115.269 11.6334 114.996 10.2091 114.45 8.99692C113.905 7.78477 113.147 6.84535 112.147 6.17866C111.147 5.51198 109.996 5.17863 108.693 5.17863C107.39 5.17863 106.238 5.51198 105.238 6.17866C104.238 6.84535 103.48 7.78477 102.935 8.99692C102.39 10.2091 102.117 11.6334 102.117 13.2395C102.117 14.8456 102.39 16.2699 102.935 17.482C103.48 18.6942 104.238 19.6336 105.238 20.3003C106.238 20.967 107.39 21.3003 108.693 21.3003C109.996 21.3003 111.147 20.967 112.147 20.3003ZM131.699 23.7852L138.032 1.66338H143.184L136.184 24.6943H127.153L120.183 1.66338H125.335L131.699 23.7852ZM149.508 14.8759V20.6942H160.842V24.6943H144.72V1.66338H160.569V5.6635H149.508V10.8758H160.357V14.8759H149.508ZM74.8459 25.6634V25.724C77.2096 25.724 79.2703 26.1482 81.0279 26.9968C82.7855 27.8453 84.1492 29.118 85.1189 30.8453C86.0886 32.5727 86.5735 34.6939 86.5735 37.2092C86.5735 39.7244 86.0886 41.8457 85.1189 43.573C84.1492 45.3003 82.7855 46.5731 81.0279 47.4216C79.2703 48.2701 77.2096 48.6943 74.8459 48.6943H66.3608V25.6634H74.8459ZM74.9671 44.7548H74.9065C76.3308 44.7548 77.5429 44.4518 78.543 43.876C79.543 43.3002 80.3006 42.4517 80.8158 41.3305C81.3309 40.2092 81.6037 38.8456 81.6037 37.2395C81.6037 35.6334 81.3309 34.2697 80.8158 33.1484C80.3006 32.0272 79.543 31.1787 78.543 30.6029C77.5429 30.0271 76.3611 29.7241 74.9671 29.7241H71.1488V44.7548H74.9671ZM93.6376 47.6034C91.88 46.6337 90.5163 45.2397 89.5466 43.4518C88.5769 41.6638 88.092 39.5729 88.092 37.1789C88.092 34.7849 88.5769 32.6939 89.5466 30.906C90.5163 29.118 91.88 27.724 93.6376 26.7543C95.3952 25.7846 97.3953 25.2997 99.6378 25.2997C101.88 25.2997 103.88 25.7846 105.638 26.7543C107.396 27.724 108.759 29.118 109.729 30.906C110.699 32.6939 111.184 34.7849 111.184 37.1789C111.184 39.5729 110.699 41.6638 109.729 43.4518C108.759 45.2397 107.396 46.6337 105.638 47.6034C103.88 48.5731 101.88 49.058 99.6378 49.058C97.3953 49.058 95.3952 48.5731 93.6376 47.6034ZM103.062 44.3003C104.062 43.6336 104.82 42.6942 105.365 41.482C105.911 40.2699 106.183 38.8456 106.183 37.2395C106.183 35.6334 105.911 34.2091 105.365 32.9969C104.82 31.7848 104.062 30.8453 103.062 30.1787C102.062 29.512 100.911 29.1786 99.6075 29.1786C98.3044 29.1786 97.1529 29.512 96.1528 30.1787C95.1528 30.8453 94.3952 31.7848 93.8497 32.9969C93.3043 34.2091 93.0315 35.6334 93.0315 37.2395C93.0315 38.8456 93.3043 40.2699 93.8497 41.482C94.3952 42.6942 95.1528 43.6336 96.1528 44.3003C97.1529 44.967 98.3044 45.3003 99.6075 45.3003C100.911 45.3003 102.062 44.967 103.062 44.3003ZM141.998 25.6634V48.6943H137.24V26.4513L132.179 48.6943H123.664L118.634 26.6028V48.6943H113.846V25.6634H123.119L127.937 47.9367L132.725 25.6634H141.998ZM167.511 48.6943H162.481L160.511 42.482H150.45L148.48 48.6943H143.45L151.086 25.6634H159.875L167.511 48.6943ZM155.481 26.6331L151.723 38.4819H159.238L155.481 26.6331ZM173.754 48.6943H168.965V25.6634H173.754V48.6943ZM194.494 47.9064V25.6634H199.251V48.6943H190.009L182.402 26.4513V48.6943H177.645V25.6634H186.918L194.494 47.9064ZM206.618 48.1792L206.497 48.3004C205.103 47.6943 203.982 46.8458 203.133 45.7246C202.285 44.6033 201.769 43.2699 201.557 41.7244H206.557C206.709 42.9063 207.224 43.8154 208.103 44.4518C208.982 45.0882 210.073 45.3912 211.376 45.3912C212.436 45.3912 213.346 45.27 214.103 45.0276C214.861 44.7851 215.437 44.4518 215.83 43.9972C216.224 43.5427 216.437 43.0275 216.437 42.4214C216.437 41.8457 216.285 41.3608 215.952 40.9971C215.618 40.6335 215.133 40.3305 214.497 40.088C213.861 39.8456 212.982 39.6032 211.83 39.3304L208.558 38.6031C206.527 38.1789 204.951 37.4516 203.83 36.391C202.709 35.3303 202.163 33.9363 202.163 32.209C202.163 30.906 202.557 29.7241 203.345 28.6938C204.133 27.6634 205.194 26.8452 206.557 26.2695C207.921 25.6937 209.436 25.3906 211.103 25.3906C212.952 25.3906 214.558 25.6634 215.921 26.2089C217.285 26.7543 218.346 27.5119 219.134 28.4816C219.921 29.4514 220.437 30.6029 220.649 31.906H215.649C215.346 30.9666 214.8 30.2696 214.043 29.815C213.285 29.3605 212.315 29.1483 211.133 29.1483C210.376 29.1483 209.679 29.2392 209.042 29.4514C208.406 29.6635 207.891 29.9665 207.527 30.3605C207.164 30.7544 206.982 31.209 206.982 31.7242C206.982 32.2696 207.133 32.6939 207.436 33.0272C207.739 33.3606 208.194 33.6333 208.8 33.8757C209.406 34.1182 210.285 34.3606 211.436 34.6333L214.709 35.3606C216.921 35.8455 218.588 36.6031 219.679 37.6334C220.77 38.6637 221.315 40.088 221.315 41.876C221.315 43.3609 220.891 44.6639 220.073 45.7549C219.255 46.8458 218.103 47.664 216.588 48.2398C215.073 48.8156 213.315 49.0883 211.315 49.0883C209.588 49.0883 208.012 48.7852 206.618 48.1792Z" fill="black"/>
<circle cx="24.9834" cy="24.9834" r="24.9834" fill="black"/>
</svg>
