<svg width="22" height="22" viewBox="0 0 22 22" fill="none" xmlns="http://www.w3.org/2000/svg">
<path d="M18.625 16.1753C18.33 14.3862 16.7407 13.1038 14.9301 13.1918C13.1195 13.2798 11.6635 14.7145 11.5469 16.5227C7.89486 16.4085 6.59821 15.5543 6.80996 13.8175C6.88847 13.168 7.28104 12.8207 8.00193 12.6517C8.4397 12.5494 8.92505 12.5352 9.3652 12.5756C9.40564 12.5804 9.44847 12.5827 9.48892 12.5875C9.75776 12.6517 10.0314 12.7065 10.305 12.7493C11.1163 12.8825 11.9419 12.9491 12.727 12.9063C14.9349 12.7874 16.4385 11.8143 16.5146 9.74914C16.5884 7.74825 15.2132 6.33026 12.9958 5.38096C12.2845 5.07643 11.5303 4.84089 10.7761 4.66245C10.4358 4.58156 10.1503 4.52684 9.93858 4.49115C9.75063 2.68535 8.23747 1.30781 6.42215 1.29353C4.60684 1.27926 3.06989 2.62825 2.851 4.43167C2.63212 6.23509 3.80267 7.91241 5.56803 8.33115C7.33338 8.74988 9.13442 7.7768 9.74825 6.06855C9.97189 6.10899 10.1932 6.1542 10.4144 6.20654C11.0853 6.36356 11.7563 6.57293 12.3749 6.8394C14.0569 7.55791 14.9753 8.50721 14.9325 9.69204C14.8944 10.7532 14.1331 11.2433 12.6437 11.3242C11.9894 11.3598 11.2733 11.3027 10.5667 11.1862C10.3692 11.1529 10.1884 11.1195 10.029 11.0839C9.9362 11.0648 9.87196 11.0482 9.84341 11.041L9.76966 11.0268C9.71732 11.0196 9.62929 11.0077 9.51509 10.9958C8.92029 10.9411 8.27553 10.9601 7.64743 11.1053C6.33412 11.4122 5.41338 12.2282 5.24208 13.6224C4.86855 16.625 7.11211 18.0168 11.8086 18.1167C12.501 19.7917 14.3401 20.6839 16.0816 20.1866C17.8256 19.6894 18.92 17.9645 18.625 16.1753ZM6.38646 6.84416C6.12619 6.84414 5.86846 6.79286 5.628 6.69325C5.38755 6.59363 5.16906 6.44762 4.98503 6.26357C4.801 6.07951 4.65502 5.86101 4.55543 5.62054C4.45584 5.38007 4.40459 5.12234 4.40461 4.86206C4.40462 4.60179 4.4559 4.34406 4.55552 4.1036C4.65514 3.86315 4.80114 3.64466 4.9852 3.46063C5.16925 3.2766 5.38775 3.13062 5.62822 3.03103C5.86869 2.93144 6.12642 2.88019 6.3867 2.88021C6.91235 2.88024 7.41647 3.08908 7.78814 3.4608C8.15981 3.83251 8.36859 4.33665 8.36856 4.8623C8.36853 5.38795 8.15968 5.89207 7.78797 6.26374C7.41625 6.63541 6.91212 6.84419 6.38646 6.84416ZM15.1062 18.7353C14.8459 18.7353 14.5882 18.684 14.3477 18.5844C14.1072 18.4848 13.8888 18.3388 13.7047 18.1547C13.5207 17.9707 13.3747 17.7522 13.2751 17.5117C13.1755 17.2712 13.1243 17.0135 13.1243 16.7532C13.1243 16.4929 13.1756 16.2352 13.2752 15.9947C13.3748 15.7543 13.5208 15.5358 13.7049 15.3518C13.889 15.1677 14.1074 15.0218 14.3479 14.9222C14.5884 14.8226 14.8461 14.7713 15.1064 14.7714C15.6321 14.7714 16.1362 14.9802 16.5078 15.3519C16.8795 15.7237 17.0883 16.2278 17.0883 16.7534C17.0882 17.2791 16.8794 17.7832 16.5077 18.1549C16.136 18.5266 15.6318 18.7353 15.1062 18.7353Z" fill="#292D32" fill-opacity="0.52"/>
</svg>
