<svg width="60" height="59" viewBox="0 0 60 59" fill="none" xmlns="http://www.w3.org/2000/svg">
<g clip-path="url(#clip0_1_3487)">
<rect x="2" y="1" width="56" height="56" rx="6.69887" fill="white"/>
<path d="M51.8237 27.3216H37.21C37.0113 27.3216 36.8301 27.2812 36.6613 27.2214C36.7914 27.0983 36.9427 26.991 37.1238 26.9118L50.5362 21.1079C51.1325 20.8493 51.4068 20.1581 51.1483 19.5619C50.8915 18.9657 50.1985 18.6913 49.6023 18.9498L36.1917 24.7538C36.0932 24.796 35.9947 24.8101 35.8962 24.8312C35.9525 24.7485 36.0017 24.6606 36.0774 24.585L46.4102 14.2522C46.8692 13.7931 46.8692 13.0474 46.4102 12.5901C45.9511 12.1311 45.2054 12.1311 44.7464 12.5901L34.4136 22.9229C34.2729 23.0636 34.1181 23.1639 33.9545 23.2395C33.9598 23.0601 33.9897 22.879 34.0636 22.6925L39.4436 9.10598C39.6828 8.50272 39.3874 7.81857 38.7841 7.57938C38.1808 7.34018 37.4967 7.63566 37.2575 8.24068L31.8774 21.829C31.8387 21.9292 31.7771 22.0066 31.7226 22.0928C31.7033 21.9925 31.6769 21.8976 31.6769 21.7903V7.17661C31.6769 6.52586 31.151 6 30.5003 6C29.8495 6 29.3237 6.52586 29.3237 7.17661V21.7903C29.3237 21.989 29.2832 22.1702 29.2234 22.339C29.1021 22.2089 28.993 22.0576 28.9139 21.8765L23.1099 8.46405C22.8514 7.86782 22.1602 7.59346 21.5639 7.852C20.9677 8.11054 20.6934 8.80346 20.9519 9.39792L26.7558 22.8086C26.7981 22.9088 26.8121 23.0056 26.8332 23.1041C26.7506 23.0478 26.6626 22.9986 26.587 22.9229L16.2542 12.5901C15.7952 12.1311 15.0494 12.1311 14.5922 12.5901C14.1331 13.0492 14.1331 13.7931 14.5922 14.2522L24.925 24.585C25.0657 24.7257 25.1659 24.8805 25.2415 25.044C25.0621 25.0387 24.8792 25.0088 24.6946 24.935L11.108 19.5548C10.5048 19.3157 9.8206 19.6111 9.58141 20.2162C9.34222 20.8194 9.63769 21.5036 10.2427 21.7428L23.8292 27.1211C23.9295 27.1616 24.0086 27.2214 24.0931 27.2741C23.9928 27.2935 23.8978 27.3216 23.7906 27.3216H9.17691C8.52792 27.3216 8.00027 27.8475 8.00027 28.4982C8.00027 29.149 8.52616 29.6749 9.17691 29.6749H23.7906C23.9893 29.6749 24.1704 29.7136 24.3375 29.7751C24.2074 29.8982 24.0561 30.0055 23.875 30.0847L10.4643 35.8886C9.86809 36.1472 9.59373 36.8384 9.85227 37.4346C10.1108 38.0308 10.802 38.3052 11.3982 38.0466L24.8107 32.2427C24.9091 32.2005 25.0076 32.1882 25.1061 32.1653C25.0481 32.2497 25.0006 32.3359 24.925 32.4133L14.5922 42.7461C14.1331 43.2051 14.1331 43.9491 14.5922 44.4099C15.0512 44.8689 15.7952 44.8689 16.2542 44.4099L26.587 34.0771C26.7277 33.9364 26.8842 33.8361 27.046 33.7605C27.0408 33.9381 27.0109 34.121 26.937 34.3057L21.5569 47.894C21.3177 48.4973 21.6132 49.1814 22.2182 49.4206C22.8215 49.6598 23.5056 49.3643 23.7448 48.7593L29.1231 35.1728C29.1636 35.0725 29.2234 34.9934 29.2779 34.9072C29.2973 35.0075 29.3237 35.1024 29.3237 35.2097V49.8234C29.3237 50.4724 29.8495 51 30.5003 51C31.151 51 31.6769 50.4724 31.6769 49.8234V35.2097C31.6769 35.011 31.7156 34.8298 31.7772 34.661C31.8985 34.7911 32.0076 34.9424 32.0867 35.1235L37.8907 48.5342C38.1492 49.1304 38.8404 49.4048 39.4366 49.1462C40.0328 48.8877 40.3072 48.1948 40.0487 47.6003L34.2447 34.1897C34.2025 34.0894 34.1884 33.9926 34.1673 33.8941C34.2517 33.9522 34.3379 33.9997 34.4136 34.0753L44.7464 44.4081C45.2054 44.8672 45.9494 44.8672 46.4102 44.4081C46.8709 43.9491 46.8692 43.2034 46.4102 42.7443L36.0774 32.4115C35.9366 32.2708 35.8364 32.116 35.7608 31.9525C35.9402 31.9577 36.1213 31.9877 36.3078 32.0615L49.8943 37.4416C50.4976 37.6808 51.1817 37.3853 51.4209 36.7803C51.6601 36.1771 51.3646 35.4929 50.7596 35.2537L37.1713 29.8736C37.0711 29.8332 36.9919 29.7733 36.9075 29.7206C37.0077 29.7012 37.1027 29.6749 37.21 29.6749H51.8237C52.4727 29.6749 53.0003 29.149 53.0003 28.4982C53.0003 27.8475 52.4744 27.3216 51.8237 27.3216Z" fill="#0000FF"/>
</g>

<defs>
<filter id="filter0_d_1_3487" x="0.883521" y="0.44176" width="58.233" height="58.233" filterUnits="userSpaceOnUse" color-interpolation-filters="sRGB">
<feFlood flood-opacity="0" result="BackgroundImageFix"/>
<feColorMatrix in="SourceAlpha" type="matrix" values="0 0 0 0 0 0 0 0 0 0 0 0 0 0 0 0 0 0 127 0" result="hardAlpha"/>
<feOffset dy="0.55824"/>
<feGaussianBlur stdDeviation="0.55824"/>
<feComposite in2="hardAlpha" operator="out"/>
<feColorMatrix type="matrix" values="0 0 0 0 0.894118 0 0 0 0 0.898039 0 0 0 0 0.905882 0 0 0 0.24 0"/>
<feBlend mode="normal" in2="BackgroundImageFix" result="effect1_dropShadow_1_3487"/>
<feBlend mode="normal" in="SourceGraphic" in2="effect1_dropShadow_1_3487" result="shape"/>
</filter>
<clipPath id="clip0_1_3487">
<rect x="2" y="1" width="56" height="56" rx="6.69887" fill="white"/>
</clipPath>
</defs>
</svg>
