<svg width="39" height="39" viewBox="0 0 39 39" fill="none" xmlns="http://www.w3.org/2000/svg">
<path d="M27.3958 9.78809C30.5625 11.9889 32.7475 15.4881 33.1908 19.5256" stroke="#0000FF" stroke-width="3" stroke-linecap="round" stroke-linejoin="round"/>
<path d="M6.06828 19.6049C6.47995 15.5833 8.63328 12.0841 11.7683 9.86743" stroke="#0000FF" stroke-width="3" stroke-linecap="round" stroke-linejoin="round"/>
<path d="M13.51 33.174C15.3466 34.1081 17.4366 34.6306 19.6375 34.6306C21.7591 34.6306 23.7541 34.1556 25.5433 33.2848" stroke="#0000FF" stroke-width="3" stroke-linecap="round" stroke-linejoin="round"/>
<path d="M19.6375 12.2107C22.0684 12.2107 24.0391 10.24 24.0391 7.80901C24.0391 5.37804 22.0684 3.40735 19.6375 3.40735C17.2065 3.40735 15.2358 5.37804 15.2358 7.80901C15.2358 10.24 17.2065 12.2107 19.6375 12.2107Z" stroke="#0000FF" stroke-width="3" stroke-linecap="round" stroke-linejoin="round"/>
<path d="M8.19 31.5587C10.621 31.5587 12.5917 29.588 12.5917 27.157C12.5917 24.7261 10.621 22.7554 8.19 22.7554C5.75902 22.7554 3.78833 24.7261 3.78833 27.157C3.78833 29.588 5.75902 31.5587 8.19 31.5587Z" stroke="#0000FF" stroke-width="3" stroke-linecap="round" stroke-linejoin="round"/>
<path d="M30.895 31.5587C33.326 31.5587 35.2967 29.588 35.2967 27.157C35.2967 24.7261 33.326 22.7554 30.895 22.7554C28.464 22.7554 26.4933 24.7261 26.4933 27.157C26.4933 29.588 28.464 31.5587 30.895 31.5587Z" stroke="#0000FF" stroke-width="3" stroke-linecap="round" stroke-linejoin="round"/>
</svg>
