<svg width="39" height="39" viewBox="0 0 39 39" fill="none" xmlns="http://www.w3.org/2000/svg">
<path d="M27.3958 9.78857C30.5625 11.9894 32.7475 15.4886 33.1908 19.5261" stroke="#292D32" stroke-width="3" stroke-linecap="round" stroke-linejoin="round"/>
<path d="M6.06828 19.6047C6.47995 15.583 8.63328 12.0839 11.7683 9.86719" stroke="#292D32" stroke-width="3" stroke-linecap="round" stroke-linejoin="round"/>
<path d="M13.51 33.1733C15.3466 34.1075 17.4366 34.63 19.6375 34.63C21.7591 34.63 23.7541 34.155 25.5433 33.2842" stroke="#292D32" stroke-width="3" stroke-linecap="round" stroke-linejoin="round"/>
<path d="M19.6375 12.2106C22.0684 12.2106 24.0391 10.2399 24.0391 7.80889C24.0391 5.37792 22.0684 3.40723 19.6375 3.40723C17.2065 3.40723 15.2358 5.37792 15.2358 7.80889C15.2358 10.2399 17.2065 12.2106 19.6375 12.2106Z" stroke="#292D32" stroke-width="3" stroke-linecap="round" stroke-linejoin="round"/>
<path d="M8.19 31.5597C10.621 31.5597 12.5917 29.589 12.5917 27.158C12.5917 24.727 10.621 22.7563 8.19 22.7563C5.75902 22.7563 3.78833 24.727 3.78833 27.158C3.78833 29.589 5.75902 31.5597 8.19 31.5597Z" stroke="#292D32" stroke-width="3" stroke-linecap="round" stroke-linejoin="round"/>
<path d="M30.895 31.5597C33.326 31.5597 35.2967 29.589 35.2967 27.158C35.2967 24.727 33.326 22.7563 30.895 22.7563C28.464 22.7563 26.4933 24.727 26.4933 27.158C26.4933 29.589 28.464 31.5597 30.895 31.5597Z" stroke="#292D32" stroke-width="3" stroke-linecap="round" stroke-linejoin="round"/>
</svg>
